<svg width="412" height="412" viewBox="0 0 412 412" fill="none" xmlns="http://www.w3.org/2000/svg">
<g filter="url(#filter0_dii_1_5)">
<mask id="mask0_1_5" style="mask-type:alpha" maskUnits="userSpaceOnUse" x="6" y="0" width="400" height="400">
<rect x="6" width="400" height="400" rx="16" fill="#D9D9D9"/>
</mask>
<g mask="url(#mask0_1_5)">
<rect x="6" width="400" height="400" rx="16" fill="url(#paint0_linear_1_5)"/>
<path d="M250 338.076V221.409C250 217.541 248.464 213.832 245.729 211.097C242.994 208.362 239.284 206.826 235.417 206.826H177.083C173.216 206.826 169.506 208.362 166.771 211.097C164.036 213.832 162.5 217.541 162.5 221.409V338.076" stroke="white" stroke-opacity="0.8" stroke-width="30" stroke-linecap="round" stroke-linejoin="round"/>
<path d="M75 177.659C74.999 173.416 75.9236 169.224 77.7094 165.376C79.4952 161.527 82.0991 158.114 85.3396 155.376L187.423 67.8903C192.687 63.4411 199.357 61 206.25 61C213.143 61 219.813 63.4411 225.077 67.8903L327.16 155.376C330.401 158.114 333.005 161.527 334.791 165.376C336.576 169.224 337.501 173.416 337.5 177.659V308.909C337.5 316.645 334.427 324.063 328.957 329.533C323.487 335.003 316.069 338.076 308.333 338.076H104.167C96.4312 338.076 89.0125 335.003 83.5427 329.533C78.0729 324.063 75 316.645 75 308.909V177.659Z" stroke="white" stroke-opacity="0.8" stroke-width="30" stroke-linecap="round" stroke-linejoin="round"/>
<ellipse cx="205.5" cy="64" rx="285.5" ry="136" fill="url(#paint1_linear_1_5)"/>
</g>
</g>
<defs>
<filter id="filter0_dii_1_5" x="0" y="0" width="412" height="412" filterUnits="userSpaceOnUse" color-interpolation-filters="sRGB">
<feFlood flood-opacity="0" result="BackgroundImageFix"/>
<feColorMatrix in="SourceAlpha" type="matrix" values="0 0 0 0 0 0 0 0 0 0 0 0 0 0 0 0 0 0 127 0" result="hardAlpha"/>
<feOffset dy="6"/>
<feGaussianBlur stdDeviation="3"/>
<feComposite in2="hardAlpha" operator="out"/>
<feColorMatrix type="matrix" values="0 0 0 0 0 0 0 0 0 0 0 0 0 0 0 0 0 0 0.3 0"/>
<feBlend mode="normal" in2="BackgroundImageFix" result="effect1_dropShadow_1_5"/>
<feBlend mode="normal" in="SourceGraphic" in2="effect1_dropShadow_1_5" result="shape"/>
<feColorMatrix in="SourceAlpha" type="matrix" values="0 0 0 0 0 0 0 0 0 0 0 0 0 0 0 0 0 0 127 0" result="hardAlpha"/>
<feOffset dy="4"/>
<feComposite in2="hardAlpha" operator="arithmetic" k2="-1" k3="1"/>
<feColorMatrix type="matrix" values="0 0 0 0 1 0 0 0 0 1 0 0 0 0 1 0 0 0 0.25 0"/>
<feBlend mode="normal" in2="shape" result="effect2_innerShadow_1_5"/>
<feColorMatrix in="SourceAlpha" type="matrix" values="0 0 0 0 0 0 0 0 0 0 0 0 0 0 0 0 0 0 127 0" result="hardAlpha"/>
<feOffset dy="-4"/>
<feComposite in2="hardAlpha" operator="arithmetic" k2="-1" k3="1"/>
<feColorMatrix type="matrix" values="0 0 0 0 0 0 0 0 0 0 0 0 0 0 0 0 0 0 0.2 0"/>
<feBlend mode="normal" in2="effect2_innerShadow_1_5" result="effect3_innerShadow_1_5"/>
</filter>
<linearGradient id="paint0_linear_1_5" x1="206" y1="0" x2="206" y2="400" gradientUnits="userSpaceOnUse">
<stop offset="0.4975" stop-color="#FF34CC"/>
<stop offset="1" stop-color="#FF6DDA" stop-opacity="0.85"/>
</linearGradient>
<linearGradient id="paint1_linear_1_5" x1="205.5" y1="-72" x2="205.5" y2="200" gradientUnits="userSpaceOnUse">
<stop offset="0.261029" stop-color="white" stop-opacity="0.5"/>
<stop offset="1" stop-color="white" stop-opacity="0.04"/>
</linearGradient>
</defs>
</svg>
