<svg width="412" height="412" viewBox="0 0 412 412" fill="none" xmlns="http://www.w3.org/2000/svg">
<g filter="url(#filter0_dii_1_5)">
<mask id="mask0_1_5" style="mask-type:alpha" maskUnits="userSpaceOnUse" x="6" y="0" width="400" height="400">
<rect x="6" width="400" height="400" rx="16" fill="#D9D9D9"/>
</mask>
<g mask="url(#mask0_1_5)">
<rect x="6" width="400" height="400" rx="16" fill="url(#paint0_linear_1_5)"/>
<path d="M177.083 185.667C209.3 185.667 235.417 159.55 235.417 127.333C235.417 95.1167 209.3 69 177.083 69C144.867 69 118.75 95.1167 118.75 127.333C118.75 159.55 144.867 185.667 177.083 185.667Z" stroke="white" stroke-opacity="0.8" stroke-width="30" stroke-linecap="round" stroke-linejoin="round"/>
<path d="M181.458 244H133.333C117.862 244 103.025 250.146 92.0854 261.085C81.1458 272.025 75 286.862 75 302.333V331.5" stroke="white" stroke-opacity="0.8" stroke-width="30" stroke-linecap="round" stroke-linejoin="round"/>
<path d="M279.167 316.917C303.329 316.917 322.917 297.329 322.917 273.167C322.917 249.004 303.329 229.417 279.167 229.417C255.004 229.417 235.417 249.004 235.417 273.167C235.417 297.329 255.004 316.917 279.167 316.917Z" stroke="white" stroke-opacity="0.8" stroke-width="30" stroke-linecap="round" stroke-linejoin="round"/>
<path d="M337.5 331.5L309.792 303.792" stroke="white" stroke-opacity="0.8" stroke-width="30" stroke-linecap="round" stroke-linejoin="round"/>
<ellipse cx="205.5" cy="64" rx="285.5" ry="136" fill="url(#paint1_linear_1_5)"/>
</g>
</g>
<defs>
<filter id="filter0_dii_1_5" x="0" y="0" width="412" height="412" filterUnits="userSpaceOnUse" color-interpolation-filters="sRGB">
<feFlood flood-opacity="0" result="BackgroundImageFix"/>
<feColorMatrix in="SourceAlpha" type="matrix" values="0 0 0 0 0 0 0 0 0 0 0 0 0 0 0 0 0 0 127 0" result="hardAlpha"/>
<feOffset dy="6"/>
<feGaussianBlur stdDeviation="3"/>
<feComposite in2="hardAlpha" operator="out"/>
<feColorMatrix type="matrix" values="0 0 0 0 0 0 0 0 0 0 0 0 0 0 0 0 0 0 0.3 0"/>
<feBlend mode="normal" in2="BackgroundImageFix" result="effect1_dropShadow_1_5"/>
<feBlend mode="normal" in="SourceGraphic" in2="effect1_dropShadow_1_5" result="shape"/>
<feColorMatrix in="SourceAlpha" type="matrix" values="0 0 0 0 0 0 0 0 0 0 0 0 0 0 0 0 0 0 127 0" result="hardAlpha"/>
<feOffset dy="4"/>
<feComposite in2="hardAlpha" operator="arithmetic" k2="-1" k3="1"/>
<feColorMatrix type="matrix" values="0 0 0 0 1 0 0 0 0 1 0 0 0 0 1 0 0 0 0.25 0"/>
<feBlend mode="normal" in2="shape" result="effect2_innerShadow_1_5"/>
<feColorMatrix in="SourceAlpha" type="matrix" values="0 0 0 0 0 0 0 0 0 0 0 0 0 0 0 0 0 0 127 0" result="hardAlpha"/>
<feOffset dy="-4"/>
<feComposite in2="hardAlpha" operator="arithmetic" k2="-1" k3="1"/>
<feColorMatrix type="matrix" values="0 0 0 0 0 0 0 0 0 0 0 0 0 0 0 0 0 0 0.2 0"/>
<feBlend mode="normal" in2="effect2_innerShadow_1_5" result="effect3_innerShadow_1_5"/>
</filter>
<linearGradient id="paint0_linear_1_5" x1="206" y1="0" x2="206" y2="400" gradientUnits="userSpaceOnUse">
<stop offset="0.4975" stop-color="#BE1417"/>
<stop offset="1" stop-color="#B05B5D" stop-opacity="0.85"/>
</linearGradient>
<linearGradient id="paint1_linear_1_5" x1="205.5" y1="-72" x2="205.5" y2="200" gradientUnits="userSpaceOnUse">
<stop offset="0.261029" stop-color="white" stop-opacity="0.5"/>
<stop offset="1" stop-color="white" stop-opacity="0.04"/>
</linearGradient>
</defs>
</svg>
